<?xml version="1.0" standalone="no"?>
<!DOCTYPE svg PUBLIC "-//W3C//DTD SVG 20010904//EN"
 "http://www.w3.org/TR/2001/REC-SVG-20010904/DTD/svg10.dtd">
<svg version="1.0" xmlns="http://www.w3.org/2000/svg"
 width="3780.000000pt" height="756.000000pt" viewBox="0 0 3780.000000 756.000000"
 preserveAspectRatio="xMidYMid meet">

<g transform="translate(0.000000,756.000000) scale(0.100000,-0.100000)"
fill="#000000" stroke="none">
<path d="M3138 5730 c-563 -51 -1039 -272 -1330 -620 -211 -252 -335 -540
-389 -904 -22 -150 -26 -455 -9 -627 46 -453 222 -839 506 -1109 287 -273 631
-426 1129 -501 44 -7 175 -12 290 -12 168 -1 239 4 354 22 270 41 555 129 746
229 l90 47 0 820 0 820 -462 3 -463 2 0 -100 0 -100 260 0 260 0 0 -719 0
-719 -22 -5 c-13 -2 -76 -18 -140 -35 -419 -109 -901 -102 -1259 18 -204 68
-336 146 -469 280 -268 267 -394 643 -416 1239 -11 304 28 618 106 852 177
531 554 833 1145 916 238 34 741 15 1030 -38 107 -19 282 -61 318 -75 16 -6
18 1 15 92 l-3 98 -45 13 c-105 31 -334 74 -498 94 -199 23 -585 33 -744 19z"/>
<path d="M9795 5734 c-124 -10 -309 -39 -415 -65 -783 -192 -1246 -702 -1356
-1494 -23 -173 -15 -559 16 -735 41 -231 117 -444 220 -616 272 -455 745 -745
1375 -844 162 -26 480 -31 625 -11 391 55 739 183 1000 368 192 137 380 352
493 563 190 357 257 866 177 1355 -114 699 -552 1189 -1242 1389 -204 59 -393
85 -643 90 -110 2 -222 2 -250 0z m493 -209 c408 -58 735 -241 950 -530 72
-97 174 -307 216 -445 130 -434 124 -1054 -14 -1481 -91 -281 -273 -537 -481
-675 -153 -101 -368 -184 -570 -218 -212 -36 -575 -39 -784 -6 -175 27 -378
95 -519 174 -306 171 -524 506 -610 938 -64 317 -72 720 -21 1018 107 620 440
1016 990 1175 248 71 564 90 843 50z"/>
<path d="M17552 5723 c-9 -16 -1586 -3554 -1619 -3631 l-14 -33 106 3 106 3
301 673 301 672 747 0 747 0 289 -675 289 -674 221 -1 222 0 -788 1838 -787
1837 -56 3 c-45 2 -58 0 -65 -15z m263 -1353 c175 -410 320 -751 322 -757 4
-10 -131 -13 -656 -13 -364 0 -661 2 -661 5 0 3 145 330 321 727 177 398 328
738 336 757 8 18 16 32 17 30 2 -2 146 -339 321 -749z"/>
<path d="M5420 3865 l0 -1805 920 0 920 0 0 95 0 95 -720 0 -720 0 0 1710 0
1710 -200 0 -200 0 0 -1805z"/>
<path d="M12830 3866 l0 -1806 565 0 c591 0 675 4 877 45 300 61 532 174 693
339 158 163 223 321 232 566 11 290 -63 496 -239 666 -82 79 -157 131 -263
180 -73 34 -277 97 -350 109 l-40 7 80 32 c378 154 596 373 665 671 27 116 33
208 20 310 -32 254 -159 425 -404 541 -117 55 -225 88 -381 116 -113 21 -156
22 -787 25 l-668 4 0 -1805z m1136 1604 c384 -30 578 -152 650 -410 25 -90 30
-300 10 -400 -64 -314 -279 -495 -681 -572 -92 -17 -160 -22 -412 -25 l-303
-5 0 711 0 711 308 0 c169 0 362 -5 428 -10z m107 -1639 c319 -70 511 -205
616 -432 63 -135 93 -346 73 -516 -36 -306 -192 -482 -502 -568 -164 -46 -276
-56 -667 -62 l-363 -5 0 807 0 807 373 -5 c335 -4 382 -6 470 -26z"/>
<path d="M20050 3865 l0 -1805 920 0 920 0 0 95 0 95 -720 0 -720 0 0 1710 0
1710 -200 0 -200 0 0 -1805z"/>
<path d="M24450 3865 l0 -1805 915 0 915 0 0 90 0 90 -710 0 -710 0 0 805 0
805 630 0 630 0 0 95 0 95 -630 0 -630 0 0 720 0 720 710 0 710 0 0 95 0 95
-915 0 -915 0 0 -1805z"/>
<path d="M27150 3865 l0 -1805 920 0 920 0 0 95 0 95 -720 0 -720 0 0 1710 0
1710 -200 0 -200 0 0 -1805z"/>
<path d="M29830 3865 l0 -1805 200 0 200 0 0 1805 0 1805 -200 0 -200 0 0
-1805z"/>
<path d="M31050 5575 l0 -95 555 0 555 0 0 -1710 0 -1710 205 0 205 0 0 1710
0 1710 555 0 555 0 0 95 0 95 -1315 0 -1315 0 0 -95z"/>
<path d="M34510 3865 l0 -1805 915 0 915 0 0 90 0 90 -710 0 -710 0 0 805 0
805 635 0 635 0 0 95 0 95 -635 0 -635 0 0 720 0 720 710 0 710 0 0 95 0 95
-915 0 -915 0 0 -1805z"/>
</g>
</svg>
